<svg width="766" height="179" xmlns="http://www.w3.org/2000/svg" xml:space="preserve"><g stroke="null" stroke-width="0" stroke-miterlimit="2"><path fill="#e9594b" d="M68.257 179.308C30.62 179.308 0 148.688 0 111.051s30.62-68.256 68.257-68.256c37.638 0 68.258 30.62 68.258 68.256s-30.62 68.257-68.258 68.257zm0-95.634c-15.096 0-27.378 12.282-27.378 27.377 0 15.096 12.282 27.378 27.378 27.378 15.098 0 27.377-12.282 27.377-27.378 0-15.095-12.282-27.377-27.377-27.377z" class="c1" stroke="none"/><path fill="#fbc1a0" d="M95.634 111.035h40.88v65.35h-40.88v-65.35z" stroke="none"/><path fill="#f28d75" d="M136.53 111.035H95.65v62.483c24.037-10.575 40.88-34.584 40.88-62.483z" class="c2" stroke="none"/><path fill="#e9594b" d="M227.36 83.657c2.206 0 4.395.276 6.5.813L244 44.867a67.165 67.165 0 0 0-16.64-2.088c-36.874 0-66.872 29.996-66.872 66.873h40.878c0-14.334 11.66-25.995 25.992-25.995h.002z" class="c1" stroke="none"/><path fill="#fbc1a0" d="M160.488 45.608h40.878v130.783h-40.878V45.608z" stroke="none"/><path fill="#f28d75" d="M201.36 109.658V48.041c-23.982 10.166-40.872 33.964-40.872 61.617" class="c2" stroke="none"/><path fill="#e9594b" d="M318.33 179.308c-37.637 0-68.257-30.62-68.257-68.257s30.62-68.256 68.256-68.256a68.261 68.261 0 0 1 56.388 29.783L340.96 95.639a27.4 27.4 0 0 0-22.632-11.963c-15.095 0-27.377 12.28-27.377 27.378 0 15.095 12.282 27.378 27.377 27.378 8.744 0 16.76-4.032 21.99-11.062l32.798 24.404c-12.83 17.244-33.312 27.539-54.788 27.539v-.005z" class="c1" stroke="none"/><path fill="#fbc1a0" d="M391.375 46.618h71.144v33.448h-71.144V46.618z" stroke="none"/><path fill="#e9594b" d="M441.817 179.446c-27.807 0-50.428-22.623-50.428-50.428V0h40.879v128.997a9.558 9.558 0 0 0 9.546 9.547c2.511 0 4.372-.94 5.49-1.73l23.598 33.381a50.12 50.12 0 0 1-29.085 9.23v.02z" class="c1" stroke="none"/><path fill="#f28d75" d="M391.375 46.618h40.879v33.448h-40.879V46.618z" stroke="none"/><path fill="#e9594b" d="M546.303 179.308c-37.636 0-68.255-30.62-68.255-68.257s30.62-68.256 68.255-68.256c37.638 0 68.258 30.62 68.258 68.256s-30.62 68.257-68.258 68.257zm0-95.634c-15.094 0-27.376 12.282-27.376 27.377 0 15.096 12.282 27.378 27.376 27.378 15.098 0 27.377-12.282 27.377-27.378 0-15.095-12.282-27.377-27.377-27.377zm152.815-40.888c-36.874 0-66.872 29.998-66.872 66.872v66.735h40.878v-66.735c0-14.331 11.66-25.991 25.992-25.991s25.992 11.66 25.992 25.991v66.735h40.879v-66.735c0-36.874-29.999-66.872-66.873-66.872h.004z" class="c1" stroke="none"/></g></svg>